<?xml version="1.0" encoding="UTF-8" standalone="no"?>
<!-- Created with Inkscape (http://www.inkscape.org/) -->

<svg
   xmlns:dc="http://purl.org/dc/elements/1.1/"
   xmlns:cc="http://creativecommons.org/ns#"
   xmlns:rdf="http://www.w3.org/1999/02/22-rdf-syntax-ns#"
   xmlns:svg="http://www.w3.org/2000/svg"
   xmlns="http://www.w3.org/2000/svg"
   xmlns:sodipodi="http://sodipodi.sourceforge.net/DTD/sodipodi-0.dtd"
   xmlns:inkscape="http://www.inkscape.org/namespaces/inkscape"
   width="64.427124mm"
   height="57.137646mm"
   viewBox="0 0 64.427124 57.137646"
   version="1.1"
   id="svg1273"
   inkscape:version="0.92.4 (unknown)"
   sodipodi:docname="maestroex_logo.svg">
  <defs
     id="defs1267" />
  <sodipodi:namedview
     id="base"
     pagecolor="#ffffff"
     bordercolor="#666666"
     borderopacity="1.0"
     inkscape:pageopacity="0.0"
     inkscape:pageshadow="2"
     inkscape:zoom="2.8"
     inkscape:cx="15.607661"
     inkscape:cy="105.88915"
     inkscape:document-units="mm"
     inkscape:current-layer="layer1"
     showgrid="false"
     fit-margin-top="0.2"
     fit-margin-right="0.2"
     fit-margin-bottom="0.2"
     fit-margin-left="0.2"
     inkscape:window-width="1920"
     inkscape:window-height="983"
     inkscape:window-x="0"
     inkscape:window-y="27"
     inkscape:window-maximized="1" />
  <metadata
     id="metadata1270">
    <rdf:RDF>
      <cc:Work
         rdf:about="">
        <dc:format>image/svg+xml</dc:format>
        <dc:type
           rdf:resource="http://purl.org/dc/dcmitype/StillImage" />
        <dc:title />
      </cc:Work>
    </rdf:RDF>
  </metadata>
  <g
     inkscape:label="Layer 1"
     inkscape:groupmode="layer"
     id="layer1"
     transform="translate(-71.749912,-120.01223)">
    <g
       id="g1405"
       transform="translate(-0.26726975,0.26726953)">
      <path
         style="fill:#fef4f4;stroke-width:0.21166667"
         d="m 89.837385,176.47095 c 0,-0.11642 -0.226615,-0.21167 -0.503589,-0.21167 -0.681257,0 -2.813435,-0.99488 -2.962019,-1.38208 -0.06619,-0.17248 -0.386635,-0.31125 -0.718749,-0.31125 -0.329621,0 -0.705591,-0.10628 -0.835491,-0.23618 -0.1299,-0.1299 -0.42343,-0.34421 -0.65229,-0.47625 -2.696941,-1.55597 -6.671608,-5.64672 -8.020006,-8.25424 -0.177361,-0.34297 -0.585226,-0.98631 -0.906368,-1.42963 -0.321141,-0.44333 -0.774003,-1.35733 -1.00636,-2.03112 -0.232356,-0.6738 -0.589703,-1.70133 -0.794103,-2.28342 -0.437344,-1.24545 -0.695463,-2.28147 -1.001975,-4.02166 -0.295253,-1.67628 -0.291284,-8.99802 0.0057,-10.4775 0.12852,-0.6403 0.314307,-1.64042 0.41286,-2.2225 0.09855,-0.58209 0.30049,-1.28078 0.448748,-1.55265 0.148257,-0.27188 0.296384,-0.87092 0.329169,-1.33121 0.0359,-0.50399 0.243162,-1.03227 0.521046,-1.32807 0.409514,-0.43591 0.431301,-0.55731 0.193623,-1.07896 -0.25638,-0.56269 -0.223324,-0.62806 0.774345,-1.53131 l 1.042158,-0.94353 -0.50737,-0.38271 -0.507371,-0.38271 1.444254,-1.39534 c 1.217268,-1.17604 1.402523,-1.44562 1.178728,-1.71528 -0.223902,-0.26978 0.01245,-0.60763 1.507693,-2.15512 3.984719,-4.12395 5.273074,-5.13277 8.864054,-6.94085 2.70367,-1.36131 3.248622,-1.5662 5.656381,-2.12668 2.302229,-0.53591 6.574407,-0.38351 7.930567,0.28292 1.51059,0.74231 1.75526,1.56806 1.58349,5.34417 -0.10896,2.39511 -0.0714,3.14342 0.19778,3.93613 0.30768,0.90624 0.30471,1.03999 -0.04,1.80437 -0.45957,1.01915 -0.47024,1.9648 -0.0796,7.05182 0.36535,4.75744 0.37464,18.19003 0.0156,22.54251 -0.39964,4.84463 -0.57006,5.99536 -1.04626,7.06482 -0.25282,0.56778 -0.46002,1.32978 -0.46046,1.69333 -4.2e-4,0.36356 -0.18331,0.96033 -0.40638,1.32617 -1.07884,1.76926 -4.854093,4.93676 -5.889912,4.94173 -0.261937,0.001 -0.47625,0.0975 -0.47625,0.21395 0,0.12982 -1.023055,0.21166 -2.645833,0.21166 -1.622779,0 -2.645834,-0.0818 -2.645834,-0.21166 z m 23.495005,0 c 0,-0.11642 -0.21432,-0.2127 -0.47625,-0.21395 -1.03582,-0.005 -4.81108,-3.17247 -5.88992,-4.94173 -0.22307,-0.36584 -0.40594,-0.96261 -0.40638,-1.32617 -4.2e-4,-0.36355 -0.20764,-1.12555 -0.46045,-1.69333 -1.25531,-2.81916 -1.82134,-20.01974 -0.99522,-30.24233 0.35629,-4.40883 0.33673,-5.415 -0.12521,-6.43939 -0.33878,-0.75129 -0.34896,-0.92758 -0.0891,-1.54355 0.21237,-0.5034 0.29336,-1.71805 0.29336,-4.39956 0,-4.21638 0.0507,-4.38045 1.5875,-5.13758 1.3142,-0.64747 5.62412,-0.79185 7.89028,-0.26433 2.40776,0.56048 2.95272,0.76537 5.65639,2.12668 3.59098,1.80808 4.87933,2.8169 8.86405,6.94085 1.49524,1.54749 1.73159,1.88534 1.50769,2.15512 -0.22379,0.26966 -0.0385,0.53924 1.17873,1.71528 l 1.44425,1.39534 -0.50737,0.38271 -0.50737,0.38271 1.04216,0.94353 c 0.99767,0.90325 1.03073,0.96862 0.77435,1.53131 -0.23768,0.52165 -0.2159,0.64305 0.19362,1.07896 0.27788,0.2958 0.48515,0.82408 0.52105,1.32807 0.0328,0.46029 0.18091,1.05933 0.32916,1.33121 0.14826,0.27187 0.3502,0.97056 0.44875,1.55265 0.0985,0.58208 0.28434,1.5822 0.41286,2.2225 0.29697,1.47948 0.30094,8.80122 0.006,10.4775 -0.30652,1.74019 -0.56464,2.77621 -1.00198,4.02166 -0.2044,0.58209 -0.56175,1.60962 -0.7941,2.28342 -0.23236,0.67379 -0.68522,1.58779 -1.00636,2.03112 -0.32114,0.44332 -0.72901,1.08666 -0.90637,1.42963 -1.3484,2.60752 -5.32307,6.69827 -8.02001,8.25424 -0.22886,0.13204 -0.52239,0.34635 -0.65229,0.47625 -0.1299,0.1299 -0.50587,0.23618 -0.83549,0.23618 -0.33211,0 -0.65256,0.13877 -0.71875,0.31125 -0.14857,0.3872 -2.28075,1.38208 -2.96201,1.38208 -0.27697,0 -0.50359,0.0953 -0.50359,0.21167 0,0.12982 -1.02305,0.21166 -2.64583,0.21166 -1.62278,0 -2.64583,-0.0818 -2.64583,-0.21166 z"
         id="path1449"
         inkscape:connector-curvature="0" />
      <path
         style="fill:#f3f3fe;stroke-width:0.21166667"
         d="m 113.33239,176.47095 c 0,-0.11642 -0.21432,-0.2127 -0.47625,-0.21395 -1.03582,-0.005 -4.81108,-3.17247 -5.88992,-4.94173 -0.22307,-0.36584 -0.40594,-0.96261 -0.40638,-1.32617 -4.2e-4,-0.36355 -0.20764,-1.12555 -0.46045,-1.69333 -1.25531,-2.81916 -1.82134,-20.01974 -0.99522,-30.24233 0.35629,-4.40883 0.33673,-5.415 -0.12521,-6.43939 -0.33878,-0.75129 -0.34896,-0.92758 -0.0891,-1.54355 0.21237,-0.5034 0.29336,-1.71805 0.29336,-4.39956 0,-4.21638 0.0507,-4.38045 1.5875,-5.13758 1.3142,-0.64747 5.62412,-0.79185 7.89028,-0.26433 2.40776,0.56048 2.95272,0.76537 5.65639,2.12668 3.59098,1.80808 4.87933,2.8169 8.86405,6.94085 1.49524,1.54749 1.73159,1.88534 1.50769,2.15512 -0.22379,0.26966 -0.0385,0.53924 1.17873,1.71528 l 1.44425,1.39534 -0.50737,0.38271 -0.50737,0.38271 1.04216,0.94353 c 0.99767,0.90325 1.03073,0.96862 0.77435,1.53131 -0.23768,0.52165 -0.2159,0.64305 0.19362,1.07896 0.27788,0.2958 0.48515,0.82408 0.52105,1.32807 0.0328,0.46029 0.18091,1.05933 0.32916,1.33121 0.14826,0.27187 0.3502,0.97056 0.44875,1.55265 0.0985,0.58208 0.28434,1.5822 0.41286,2.2225 0.29697,1.47948 0.30094,8.80122 0.006,10.4775 -0.30652,1.74019 -0.56464,2.77621 -1.00198,4.02166 -0.2044,0.58209 -0.56175,1.60962 -0.7941,2.28342 -0.23236,0.67379 -0.68522,1.58779 -1.00636,2.03112 -0.32114,0.44332 -0.72901,1.08666 -0.90637,1.42963 -1.3484,2.60752 -5.32307,6.69827 -8.02001,8.25424 -0.22886,0.13204 -0.52239,0.34635 -0.65229,0.47625 -0.1299,0.1299 -0.50587,0.23618 -0.83549,0.23618 -0.33211,0 -0.65256,0.13877 -0.71875,0.31125 -0.14857,0.3872 -2.28075,1.38208 -2.96201,1.38208 -0.27697,0 -0.50359,0.0953 -0.50359,0.21167 0,0.12982 -1.02305,0.21166 -2.64583,0.21166 -1.62278,0 -2.64583,-0.0818 -2.64583,-0.21166 z m -22.119172,-5.08261 c -1.817944,-0.17342 -1.985442,-0.21924 -3.598333,-0.98443 -5.043378,-2.39266 -9.19912,-7.27266 -11.168111,-13.11446 -0.318664,-0.94544 -0.57939,-1.99795 -0.57939,-2.33891 0,-0.34096 -0.08687,-0.71041 -0.193042,-0.82101 -0.27897,-0.29059 -0.466778,-2.28825 -0.556195,-5.91608 -0.06017,-2.44127 -0.0043,-3.39286 0.241783,-4.1177 0.176022,-0.51848 0.265103,-1.16158 0.197959,-1.4291 -0.07227,-0.28796 0.05232,-0.82826 0.305374,-1.32429 0.2351,-0.46084 0.428082,-1.19887 0.428849,-1.64007 7.84e-4,-0.44428 0.189089,-1.08549 0.422079,-1.43718 0.231376,-0.34925 0.562018,-1.11867 0.734761,-1.70982 0.172742,-0.59115 0.550364,-1.42301 0.839159,-1.84857 0.288795,-0.42556 0.777936,-1.22777 1.08698,-1.78268 1.166166,-2.09394 4.589017,-6.00669 6.017294,-6.87852 0.407458,-0.24872 1.031776,-0.70124 1.387373,-1.0056 1.610309,-1.37829 7.042108,-3.51335 9.534836,-3.74783 0.710256,-0.0668 2.134913,-0.0512 3.165901,0.0347 1.743035,0.14519 1.923415,0.20504 2.571545,0.85316 0.60133,0.60134 0.69701,0.84148 0.69701,1.7495 0,0.57886 -0.23812,1.78195 -0.52917,2.67354 -0.6823,2.09019 -0.66695,2.49464 0.1291,3.40129 l 0.65826,0.74972 -0.73451,0.81301 c -1.0418,1.15315 -1.10759,1.85288 -0.47336,5.03468 0.86232,4.3261 1.05595,6.74212 1.0494,13.09344 -0.007,7.19646 -0.17668,9.40788 -0.97029,12.6781 -0.3361,1.38495 -0.6111,2.67678 -0.6111,2.87073 0,0.43358 -2.348494,3.91027 -3.011214,4.45778 -0.264704,0.21869 -1.052781,0.68148 -1.751281,1.02842 -1.462356,0.72635 -2.814415,0.89452 -5.291667,0.6582 z"
         id="path1447"
         inkscape:connector-curvature="0" />
      <path
         style="fill:#fee8e8;stroke-width:0.21166667"
         d="m 91.213218,171.38834 c -1.817944,-0.17342 -1.985442,-0.21924 -3.598333,-0.98443 -5.043378,-2.39266 -9.19912,-7.27266 -11.168111,-13.11446 -0.318664,-0.94544 -0.57939,-1.99795 -0.57939,-2.33891 0,-0.34096 -0.08687,-0.71041 -0.193042,-0.82101 -0.27897,-0.29059 -0.466778,-2.28825 -0.556195,-5.91608 -0.06017,-2.44127 -0.0043,-3.39286 0.241783,-4.1177 0.176022,-0.51848 0.265103,-1.16158 0.197959,-1.4291 -0.07227,-0.28796 0.05232,-0.82826 0.305374,-1.32429 0.2351,-0.46084 0.428082,-1.19887 0.428849,-1.64007 7.84e-4,-0.44428 0.189089,-1.08549 0.422079,-1.43718 0.231376,-0.34925 0.562018,-1.11867 0.734761,-1.70982 0.172742,-0.59115 0.550364,-1.42301 0.839159,-1.84857 0.288795,-0.42556 0.777936,-1.22777 1.08698,-1.78268 1.166166,-2.09394 4.589017,-6.00669 6.017294,-6.87852 0.407458,-0.24872 1.031776,-0.70124 1.387373,-1.0056 1.610309,-1.37829 7.042108,-3.51335 9.534836,-3.74783 0.710256,-0.0668 2.134913,-0.0512 3.165901,0.0347 1.743035,0.14519 1.923415,0.20504 2.571545,0.85316 0.60133,0.60134 0.69701,0.84148 0.69701,1.7495 0,0.57886 -0.23812,1.78195 -0.52917,2.67354 -0.6823,2.09019 -0.66695,2.49464 0.1291,3.40129 l 0.65826,0.74972 -0.73451,0.81301 c -1.0418,1.15315 -1.10759,1.85288 -0.47336,5.03468 0.86232,4.3261 1.05595,6.74212 1.0494,13.09344 -0.007,7.19646 -0.17668,9.40788 -0.97029,12.6781 -0.3361,1.38495 -0.6111,2.67678 -0.6111,2.87073 0,0.43358 -2.348494,3.91027 -3.011214,4.45778 -0.264704,0.21869 -1.052781,0.68148 -1.751281,1.02842 -1.462356,0.72635 -2.814415,0.89452 -5.291667,0.6582 z m 22.330832,-0.42073 c -0.17462,-0.11285 -0.52704,-0.20664 -0.78314,-0.20842 -0.53727,-0.004 -2.27123,-1.10643 -2.98396,-1.89761 -0.90443,-1.00398 -2.31765,-3.28762 -2.42986,-3.92647 -0.0613,-0.34925 -0.35626,-1.63512 -0.65537,-2.8575 -0.79233,-3.23813 -1.06206,-6.40672 -1.06309,-12.48833 -0.001,-6.26987 0.45658,-10.55827 1.59741,-14.96876 0.27343,-1.05707 -0.12831,-2.3265 -1.0404,-3.28749 l -0.55246,-0.58209 0.62169,-0.64899 c 0.7646,-0.79818 0.80722,-1.91381 0.13145,-3.44048 -1.00226,-2.26423 -0.75374,-4.20835 0.62937,-4.92358 0.53959,-0.27904 1.28899,-0.36784 3.24459,-0.38448 2.68853,-0.0229 3.79835,0.21131 7.09377,1.49686 1.56588,0.61085 4.445,2.18742 4.445,2.43402 0,0.0903 0.30956,0.3236 0.68792,0.51852 2.38338,1.22789 7.26914,7.5099 8.31057,10.68558 0.20593,0.62795 0.55151,1.39455 0.76796,1.70356 0.21645,0.30902 0.39355,0.89222 0.39355,1.29601 0,0.4038 0.19327,1.17109 0.42949,1.70511 0.2449,0.55363 0.37729,1.17927 0.30803,1.45566 -0.0668,0.26659 0.0108,0.86572 0.17238,1.33138 0.36719,1.05795 0.50108,7.19039 0.16158,7.40021 -0.12365,0.0764 -0.22481,0.65158 -0.22481,1.27813 0,0.62655 -0.0816,1.18964 -0.18145,1.25132 -0.0998,0.0617 -0.23746,0.58501 -0.30591,1.16295 -0.3599,3.03883 -3.73423,9.18714 -6.16779,11.23823 -0.34531,0.29104 -0.96561,0.82785 -1.37843,1.19291 -1.48654,1.31455 -4.19187,2.7753 -6.18067,3.33726 -1.31682,0.37209 -4.5423,0.45292 -5.04742,0.12649 z"
         id="path1445"
         inkscape:connector-curvature="0" />
      <path
         style="fill:#e8e8fe;stroke-width:0.21166667"
         d="m 113.54405,170.96761 c -0.17462,-0.11285 -0.52704,-0.20664 -0.78314,-0.20842 -0.53727,-0.004 -2.27123,-1.10643 -2.98396,-1.89761 -0.90443,-1.00398 -2.31765,-3.28762 -2.42986,-3.92647 -0.0613,-0.34925 -0.35626,-1.63512 -0.65537,-2.8575 -0.79233,-3.23813 -1.06206,-6.40672 -1.06309,-12.48833 -0.001,-6.26987 0.45658,-10.55827 1.59741,-14.96876 0.27343,-1.05707 -0.12831,-2.3265 -1.0404,-3.28749 l -0.55246,-0.58209 0.62169,-0.64899 c 0.7646,-0.79818 0.80722,-1.91381 0.13145,-3.44048 -1.00226,-2.26423 -0.75374,-4.20835 0.62937,-4.92358 0.53959,-0.27904 1.28899,-0.36784 3.24459,-0.38448 2.68853,-0.0229 3.79835,0.21131 7.09377,1.49686 1.56588,0.61085 4.445,2.18742 4.445,2.43402 0,0.0903 0.30956,0.3236 0.68792,0.51852 2.38338,1.22789 7.26914,7.5099 8.31057,10.68558 0.20593,0.62795 0.55151,1.39455 0.76796,1.70356 0.21645,0.30902 0.39355,0.89222 0.39355,1.29601 0,0.4038 0.19327,1.17109 0.42949,1.70511 0.2449,0.55363 0.37729,1.17927 0.30803,1.45566 -0.0668,0.26659 0.0108,0.86572 0.17238,1.33138 0.36719,1.05795 0.50108,7.19039 0.16158,7.40021 -0.12365,0.0764 -0.22481,0.65158 -0.22481,1.27813 0,0.62655 -0.0816,1.18964 -0.18145,1.25132 -0.0998,0.0617 -0.23746,0.58501 -0.30591,1.16295 -0.3599,3.03883 -3.73423,9.18714 -6.16779,11.23823 -0.34531,0.29104 -0.96561,0.82785 -1.37843,1.19291 -1.48654,1.31455 -4.19187,2.7753 -6.18067,3.33726 -1.31682,0.37209 -4.5423,0.45292 -5.04742,0.12649 z m -22.859999,-3.73129 c -0.886745,-0.17067 -2.633586,-0.75444 -2.846916,-0.95139 -0.110596,-0.10211 -0.329978,-0.18565 -0.487516,-0.18565 -0.546793,0 -3.341917,-2.26258 -4.726245,-3.82577 -3.860734,-4.35957 -5.680776,-9.91426 -5.414926,-16.52611 0.140919,-3.50474 0.355204,-4.83574 1.178956,-7.32291 2.108249,-6.36549 6.497822,-11.51964 12.30918,-14.45321 1.691109,-0.85366 5.405448,-1.74074 7.395801,-1.76629 1.265487,-0.0162 1.769286,0.0761 2.483695,0.45536 1.50573,0.79931 1.47694,1.05242 -0.54896,4.82539 -0.628853,1.17116 -0.710682,1.54321 -0.918976,4.17842 l -0.228655,2.89278 0.971795,2.80659 c 1.312436,3.79037 1.561496,4.88971 1.825326,8.05686 0.30719,3.68763 0.28397,5.93193 -0.0969,9.36719 -0.39235,3.53875 -0.57963,4.34797 -1.54022,6.65503 -1.651379,3.96613 -3.774098,5.64916 -7.344605,5.82329 -0.814917,0.0398 -1.719792,0.0264 -2.010834,-0.0296 z"
         id="path1443"
         inkscape:connector-curvature="0" />
      <path
         style="fill:#fed8d8;stroke-width:0.21166667"
         d="m 90.684051,167.23632 c -0.886745,-0.17067 -2.633586,-0.75444 -2.846916,-0.95139 -0.110596,-0.10211 -0.329978,-0.18565 -0.487516,-0.18565 -0.546793,0 -3.341917,-2.26258 -4.726245,-3.82577 -3.860734,-4.35957 -5.680776,-9.91426 -5.414926,-16.52611 0.140919,-3.50474 0.355204,-4.83574 1.178956,-7.32291 2.108249,-6.36549 6.497822,-11.51964 12.30918,-14.45321 1.691109,-0.85366 5.405448,-1.74074 7.395801,-1.76629 1.265487,-0.0162 1.769286,0.0761 2.483695,0.45536 1.50573,0.79931 1.47694,1.05242 -0.54896,4.82539 -0.628853,1.17116 -0.710682,1.54321 -0.918976,4.17842 l -0.228655,2.89278 0.971795,2.80659 c 1.312436,3.79037 1.561496,4.88971 1.825326,8.05686 0.30719,3.68763 0.28397,5.93193 -0.0969,9.36719 -0.39235,3.53875 -0.57963,4.34797 -1.54022,6.65503 -1.651379,3.96613 -3.774098,5.64916 -7.344605,5.82329 -0.814917,0.0398 -1.719792,0.0264 -2.010834,-0.0296 z m 23.088889,-0.18893 c -2.42181,-0.6814 -3.86997,-2.10355 -5.17822,-5.08524 -1.06673,-2.43123 -1.31275,-3.44016 -1.72664,-7.0812 -0.36021,-3.16869 -0.38477,-5.7719 -0.0891,-9.44135 0.24998,-3.10234 0.63629,-4.8253 1.89336,-8.44449 0.73464,-2.11511 0.86271,-2.71704 0.76554,-3.59833 -0.0642,-0.58209 -0.19353,-1.91612 -0.28744,-2.96452 -0.15622,-1.74392 -0.2659,-2.08268 -1.28829,-3.97922 -1.42201,-2.63781 -1.40503,-3.0005 0.17856,-3.81513 1.06155,-0.54609 1.29678,-0.58753 2.66872,-0.47015 2.11904,0.1813 5.66101,1.07808 7.05382,1.78594 4.91257,2.49668 8.72662,6.46884 11.23201,11.69766 2.79024,5.82334 3.16595,13.21675 0.99331,19.54709 -0.7566,2.20447 -2.63634,5.6892 -3.42482,6.34905 -0.13974,0.11694 -0.46126,0.51577 -0.71451,0.88631 -0.78578,1.14972 -3.87511,3.3965 -5.64422,4.10489 -2.01089,0.8052 -4.6394,1.01307 -6.43209,0.50869 z"
         id="path1441"
         inkscape:connector-curvature="0" />
      <path
         style="fill:#d8d8fe;stroke-width:0.21166667"
         d="m 113.77294,167.04739 c -2.42181,-0.6814 -3.86997,-2.10355 -5.17822,-5.08524 -1.06673,-2.43123 -1.31275,-3.44016 -1.72664,-7.0812 -0.36021,-3.16869 -0.38477,-5.7719 -0.0891,-9.44135 0.24998,-3.10234 0.63629,-4.8253 1.89336,-8.44449 0.73464,-2.11511 0.86271,-2.71704 0.76554,-3.59833 -0.0642,-0.58209 -0.19353,-1.91612 -0.28744,-2.96452 -0.15622,-1.74392 -0.2659,-2.08268 -1.28829,-3.97922 -1.42201,-2.63781 -1.40503,-3.0005 0.17856,-3.81513 1.06155,-0.54609 1.29678,-0.58753 2.66872,-0.47015 2.11904,0.1813 5.66101,1.07808 7.05382,1.78594 4.91257,2.49668 8.72662,6.46884 11.23201,11.69766 2.79024,5.82334 3.16595,13.21675 0.99331,19.54709 -0.7566,2.20447 -2.63634,5.6892 -3.42482,6.34905 -0.13974,0.11694 -0.46126,0.51577 -0.71451,0.88631 -0.78578,1.14972 -3.87511,3.3965 -5.64422,4.10489 -2.01089,0.8052 -4.6394,1.01307 -6.43209,0.50869 z m -23.934842,-2.99603 c -0.869932,-0.18416 -2.989051,-1.27084 -4.282336,-2.19597 -2.466055,-1.76406 -5.002775,-5.67936 -6.169359,-9.52209 -1.035102,-3.40962 -1.255423,-7.91574 -0.553766,-11.32585 1.097838,-5.33558 3.623093,-9.82009 7.430502,-13.19556 3.847067,-3.41063 9.62609,-5.5315 12.726338,-4.6705 1.591033,0.44186 1.505663,1.04004 -0.587621,4.11705 -1.791451,2.63334 -1.896971,2.95713 -1.896971,5.82084 v 2.43416 l 1.096831,2.11667 c 1.387598,2.67779 1.634835,3.28047 2.040554,4.97417 0.4648,1.94036 0.73806,3.82163 0.87856,6.04859 0.20567,3.25979 -0.847069,9.23534 -1.958833,11.11877 -0.918293,1.55567 -2.676914,3.33457 -3.778115,3.82169 -1.001111,0.44283 -3.795194,0.7016 -4.945784,0.45803 z"
         id="path1439"
         inkscape:connector-curvature="0" />
      <path
         style="fill:#fec7c7;stroke-width:0.21166667"
         d="m 89.838098,164.05136 c -0.869932,-0.18416 -2.989051,-1.27084 -4.282336,-2.19597 -2.466055,-1.76406 -5.002775,-5.67936 -6.169359,-9.52209 -1.035102,-3.40962 -1.255423,-7.91574 -0.553766,-11.32585 1.097838,-5.33558 3.623093,-9.82009 7.430502,-13.19556 3.847067,-3.41063 9.62609,-5.5315 12.726338,-4.6705 1.591033,0.44186 1.505663,1.04004 -0.587621,4.11705 -1.791451,2.63334 -1.896971,2.95713 -1.896971,5.82084 v 2.43416 l 1.096831,2.11667 c 1.387598,2.67779 1.634835,3.28047 2.040554,4.97417 0.4648,1.94036 0.73806,3.82163 0.87856,6.04859 0.20567,3.25979 -0.847069,9.23534 -1.958833,11.11877 -0.918293,1.55567 -2.676914,3.33457 -3.778115,3.82169 -1.001111,0.44283 -3.795194,0.7016 -4.945784,0.45803 z m 24.764292,-0.13439 c -1.36736,-0.39621 -1.88673,-0.74024 -3.09629,-2.05102 -1.48505,-1.60932 -2.10962,-2.78046 -2.61286,-4.89938 -1.25058,-5.2656 -1.27171,-9.36268 -0.0741,-14.36229 0.40572,-1.6937 0.65295,-2.29638 2.04055,-4.97417 l 1.09683,-2.11667 v -2.43416 c 0,-2.86371 -0.10552,-3.1875 -1.89697,-5.82084 -2.09328,-3.07701 -2.17866,-3.67519 -0.58762,-4.11705 3.10025,-0.861 8.87927,1.25987 12.72634,4.6705 7.84417,6.95428 10.11754,18.77718 5.4121,28.14627 -1.75378,3.492 -4.1337,5.91366 -7.29301,7.42094 -1.61793,0.7719 -4.10087,1.00558 -5.715,0.53787 z"
         id="path1437"
         inkscape:connector-curvature="0" />
      <path
         style="fill:#c7c7fe;stroke-width:0.21166667"
         d="m 114.60239,163.91697 c -1.36736,-0.39621 -1.88673,-0.74024 -3.09629,-2.05102 -1.48505,-1.60932 -2.10962,-2.78046 -2.61286,-4.89938 -1.25058,-5.2656 -1.27171,-9.36268 -0.0741,-14.36229 0.40572,-1.6937 0.65295,-2.29638 2.04055,-4.97417 l 1.09683,-2.11667 v -2.43416 c 0,-2.86371 -0.10552,-3.1875 -1.89697,-5.82084 -2.09328,-3.07701 -2.17866,-3.67519 -0.58762,-4.11705 3.10025,-0.861 8.87927,1.25987 12.72634,4.6705 7.84417,6.95428 10.11754,18.77718 5.4121,28.14627 -1.75378,3.492 -4.1337,5.91366 -7.29301,7.42094 -1.61793,0.7719 -4.10087,1.00558 -5.715,0.53787 z m -25.611672,-2.35322 c -3.594564,-0.99759 -7.195723,-5.11148 -8.6524,-9.88433 -0.787869,-2.58147 -0.886583,-3.15191 -1.016901,-5.87636 -0.244153,-5.10429 0.946267,-9.39022 3.798593,-13.67628 1.10381,-1.65865 3.746683,-4.36439 5.31559,-5.44205 1.506244,-1.03461 4.736925,-2.56689 6.099265,-2.89281 1.244733,-0.29779 3.243011,-0.30758 3.783102,-0.0185 0.719211,0.38491 0.473223,1.40542 -0.635968,2.63839 -0.877085,0.97495 -2.319824,3.33194 -2.807807,4.58708 -0.301339,0.77507 -0.440237,1.62453 -0.444007,2.71542 -0.0058,1.69291 0.303943,2.53381 2.066438,5.60916 0.947363,1.65304 1.785853,3.42706 1.943399,4.11171 0.06897,0.29973 0.250359,0.97359 0.403081,1.49746 0.685665,2.35198 0.520488,7.93863 -0.311533,10.53688 -0.535098,1.67102 -1.778881,3.91204 -2.660532,4.79369 -1.388696,1.3887 -4.466463,1.97048 -6.88032,1.30057 z"
         id="path1435"
         inkscape:connector-curvature="0" />
      <path
         style="fill:#feb7b7;stroke-width:0.21166667"
         d="m 88.990718,161.56375 c -3.594564,-0.99759 -7.195723,-5.11148 -8.6524,-9.88433 -0.787869,-2.58147 -0.886583,-3.15191 -1.016901,-5.87636 -0.244153,-5.10429 0.946267,-9.39022 3.798593,-13.67628 1.10381,-1.65865 3.746683,-4.36439 5.31559,-5.44205 1.506244,-1.03461 4.736925,-2.56689 6.099265,-2.89281 1.244733,-0.29779 3.243011,-0.30758 3.783102,-0.0185 0.719211,0.38491 0.473223,1.40542 -0.635968,2.63839 -0.877085,0.97495 -2.319824,3.33194 -2.807807,4.58708 -0.301339,0.77507 -0.440237,1.62453 -0.444007,2.71542 -0.0058,1.69291 0.303943,2.53381 2.066438,5.60916 0.947363,1.65304 1.785853,3.42706 1.943399,4.11171 0.06897,0.29973 0.250359,0.97359 0.403081,1.49746 0.685665,2.35198 0.520488,7.93863 -0.311533,10.53688 -0.535098,1.67102 -1.778881,3.91204 -2.660532,4.79369 -1.388696,1.3887 -4.466463,1.97048 -6.88032,1.30057 z m 25.422532,-0.18223 c -0.62789,-0.24041 -1.44676,-0.74225 -1.8197,-1.11519 -0.88448,-0.88448 -2.12789,-3.12364 -2.66368,-4.79683 -0.83202,-2.59826 -0.9972,-8.18491 -0.31154,-10.53689 0.15273,-0.52387 0.33411,-1.19773 0.40308,-1.49746 0.15755,-0.68465 0.99604,-2.45867 1.9434,-4.1117 1.7625,-3.07536 2.07229,-3.91626 2.06644,-5.60917 -0.004,-1.09089 -0.14267,-1.94035 -0.44401,-2.71542 -0.48798,-1.25514 -1.93072,-3.61212 -2.8078,-4.58708 -1.10919,-1.23297 -1.35518,-2.25348 -0.63597,-2.63839 0.54009,-0.28905 2.53837,-0.27926 3.7831,0.0185 1.36234,0.32592 4.59302,1.8582 6.09927,2.89281 1.5689,1.07766 4.21178,3.7834 5.31559,5.44205 2.85232,4.28606 4.04274,8.572 3.79859,13.67628 -0.13032,2.72445 -0.22903,3.29489 -1.0169,5.87636 -1.17554,3.85168 -4.13394,7.7726 -6.97268,9.24124 -1.96071,1.01438 -4.78661,1.20769 -6.73719,0.46086 z"
         id="path1433"
         inkscape:connector-curvature="0" />
      <path
         style="fill:#b7b7fe;stroke-width:0.21166667"
         d="m 114.41325,161.38152 c -0.62789,-0.24041 -1.44676,-0.74225 -1.8197,-1.11519 -0.88448,-0.88448 -2.12789,-3.12364 -2.66368,-4.79683 -0.83202,-2.59826 -0.9972,-8.18491 -0.31154,-10.53689 0.15273,-0.52387 0.33411,-1.19773 0.40308,-1.49746 0.15755,-0.68465 0.99604,-2.45867 1.9434,-4.1117 1.7625,-3.07536 2.07229,-3.91626 2.06644,-5.60917 -0.004,-1.09089 -0.14267,-1.94035 -0.44401,-2.71542 -0.48798,-1.25514 -1.93072,-3.61212 -2.8078,-4.58708 -1.10919,-1.23297 -1.35518,-2.25348 -0.63597,-2.63839 0.54009,-0.28905 2.53837,-0.27926 3.7831,0.0185 1.36234,0.32592 4.59302,1.8582 6.09927,2.89281 1.5689,1.07766 4.21178,3.7834 5.31559,5.44205 2.85232,4.28606 4.04274,8.572 3.79859,13.67628 -0.13032,2.72445 -0.22903,3.29489 -1.0169,5.87636 -1.17554,3.85168 -4.13394,7.7726 -6.97268,9.24124 -1.96071,1.01438 -4.78661,1.20769 -6.73719,0.46086 z m -25.469956,-1.522 c -4.492202,-1.23654 -8.11002,-6.57414 -9.04555,-13.34549 -0.194405,-1.40711 -0.0036,-5.33675 0.323444,-6.66142 0.459647,-1.86175 1.491061,-4.57624 2.141638,-5.63639 0.419458,-0.68353 1.001757,-1.6595 1.293998,-2.16883 0.728305,-1.26933 3.677335,-4.21168 5.266481,-5.25456 2.535192,-1.66371 6.389634,-2.91742 7.63183,-2.48234 1.103274,0.38642 0.794723,1.26271 -1.459313,4.14447 -0.916667,1.17195 -1.869648,3.37244 -2.123205,4.90262 -0.19852,1.19803 -0.171617,1.55171 0.214806,2.82393 0.242963,0.7999 0.731598,1.90551 1.085856,2.4569 0.354258,0.55139 0.92598,1.44164 1.270491,1.97832 0.344513,0.53668 0.783609,1.41774 0.975773,1.95792 0.192161,0.54017 0.521227,1.41075 0.731257,1.93463 1.283213,3.2007 0.946595,8.72499 -0.7337,12.04089 -1.433929,2.82973 -4.480367,4.16086 -7.573806,3.30935 z"
         id="path1431"
         inkscape:connector-curvature="0" />
      <path
         style="fill:#fea7a7;stroke-width:0.21166667"
         d="m 88.943294,159.85952 c -4.492202,-1.23654 -8.11002,-6.57414 -9.04555,-13.34549 -0.194405,-1.40711 -0.0036,-5.33675 0.323444,-6.66142 0.459647,-1.86175 1.491061,-4.57624 2.141638,-5.63639 0.419458,-0.68353 1.001757,-1.6595 1.293998,-2.16883 0.728305,-1.26933 3.677335,-4.21168 5.266481,-5.25456 2.535192,-1.66371 6.389634,-2.91742 7.63183,-2.48234 1.103274,0.38642 0.794723,1.26271 -1.459313,4.14447 -0.916667,1.17195 -1.869648,3.37244 -2.123205,4.90262 -0.19852,1.19803 -0.171617,1.55171 0.214806,2.82393 0.242963,0.7999 0.731598,1.90551 1.085856,2.4569 0.354258,0.55139 0.92598,1.44164 1.270491,1.97832 0.344513,0.53668 0.783609,1.41774 0.975773,1.95792 0.192161,0.54017 0.521227,1.41075 0.731257,1.93463 1.283213,3.2007 0.946595,8.72499 -0.7337,12.04089 -1.433929,2.82973 -4.480367,4.16086 -7.573806,3.30935 z m 26.188256,-0.29636 c -2.20922,-1.05959 -3.2708,-2.49174 -4.12359,-5.56304 -0.84329,-3.03706 -0.75656,-7.09822 0.20268,-9.49084 0.21003,-0.52388 0.53909,-1.39446 0.73125,-1.93463 0.19217,-0.54018 0.61549,-1.39743 0.94072,-1.905 0.32524,-0.50758 0.89696,-1.39783 1.2705,-1.97832 0.37353,-0.5805 0.87794,-1.70992 1.1209,-2.50982 0.38643,-1.27222 0.41333,-1.6259 0.21481,-2.82393 -0.25356,-1.53018 -1.20654,-3.73067 -2.12321,-4.90262 -2.25403,-2.88176 -2.56258,-3.75805 -1.45931,-4.14447 1.2422,-0.43508 5.09664,0.81863 7.63183,2.48234 1.58915,1.04288 4.53818,3.98523 5.26648,5.25456 0.29224,0.50933 0.87454,1.4853 1.294,2.16883 0.65058,1.06015 1.68199,3.77464 2.14164,5.63639 0.0718,0.29104 0.22027,1.57418 0.32982,2.85142 0.6707,7.82004 -3.51086,15.66596 -9.14931,17.16695 -1.73329,0.46141 -2.8529,0.38106 -4.28921,-0.30782 z"
         id="path1429"
         inkscape:connector-curvature="0" />
      <path
         style="fill:#a7a7fe;stroke-width:0.21166667"
         d="m 115.13155,159.56316 c -2.20922,-1.05959 -3.2708,-2.49174 -4.12359,-5.56304 -0.84329,-3.03706 -0.75656,-7.09822 0.20268,-9.49084 0.21003,-0.52388 0.53909,-1.39446 0.73125,-1.93463 0.19217,-0.54018 0.61549,-1.39743 0.94072,-1.905 0.32524,-0.50758 0.89696,-1.39783 1.2705,-1.97832 0.37353,-0.5805 0.87794,-1.70992 1.1209,-2.50982 0.38643,-1.27222 0.41333,-1.6259 0.21481,-2.82393 -0.25356,-1.53018 -1.20654,-3.73067 -2.12321,-4.90262 -2.25403,-2.88176 -2.56258,-3.75805 -1.45931,-4.14447 1.2422,-0.43508 5.09664,0.81863 7.63183,2.48234 1.58915,1.04288 4.53818,3.98523 5.26648,5.25456 0.29224,0.50933 0.87454,1.4853 1.294,2.16883 0.65058,1.06015 1.68199,3.77464 2.14164,5.63639 0.0718,0.29104 0.22027,1.57418 0.32982,2.85142 0.6707,7.82004 -3.51086,15.66596 -9.14931,17.16695 -1.73329,0.46141 -2.8529,0.38106 -4.28921,-0.30782 z m -26.887814,-1.67743 c -4.964464,-1.71656 -8.574508,-9.33046 -7.715886,-16.2735 0.691551,-5.59205 3.453137,-10.53581 7.681665,-13.75163 1.670876,-1.27071 2.82163,-1.84853 4.844547,-2.43252 1.326758,-0.38303 1.728713,-0.42498 2.165411,-0.22601 0.672006,0.30619 0.616562,0.4678 -0.963398,2.80819 -1.615794,2.39347 -2.429206,4.15991 -2.7261,5.92009 -0.384133,2.27739 0.142776,3.85697 2.540371,7.6156 1.568047,2.45817 2.249669,4.42566 2.461797,7.10591 0.268935,3.39802 -0.719984,6.44371 -2.658008,8.18616 -1.605936,1.44388 -3.477455,1.79213 -5.630399,1.04771 z"
         id="path1427"
         inkscape:connector-curvature="0" />
      <path
         style="fill:#fe9090;stroke-width:0.21166667"
         d="m 88.243736,157.88573 c -4.964464,-1.71656 -8.574508,-9.33046 -7.715886,-16.2735 0.691551,-5.59205 3.453137,-10.53581 7.681665,-13.75163 1.670876,-1.27071 2.82163,-1.84853 4.844547,-2.43252 1.326758,-0.38303 1.728713,-0.42498 2.165411,-0.22601 0.672006,0.30619 0.616562,0.4678 -0.963398,2.80819 -1.615794,2.39347 -2.429206,4.15991 -2.7261,5.92009 -0.384133,2.27739 0.142776,3.85697 2.540371,7.6156 1.568047,2.45817 2.249669,4.42566 2.461797,7.10591 0.268935,3.39802 -0.719984,6.44371 -2.658008,8.18616 -1.605936,1.44388 -3.477455,1.79213 -5.630399,1.04771 z m 28.088504,0.11329 c -0.38737,-0.12396 -1.17027,-0.64432 -1.73978,-1.15636 -1.94349,-1.74736 -2.93241,-4.78888 -2.66317,-8.1908 0.21213,-2.68025 0.89375,-4.64774 2.4618,-7.10591 2.3976,-3.75863 2.9245,-5.33821 2.54037,-7.6156 -0.29689,-1.76018 -1.1103,-3.52662 -2.7261,-5.92009 -1.57996,-2.34039 -1.6354,-2.502 -0.9634,-2.80819 0.4367,-0.19897 0.83866,-0.15702 2.16541,0.22601 2.02292,0.58399 3.17368,1.16181 4.84455,2.43252 4.22853,3.21582 6.99011,8.15958 7.68167,13.75163 0.71222,5.75921 -1.57774,12.0423 -5.46018,14.98138 -2.01897,1.5284 -4.19827,2.02713 -6.14117,1.40541 z"
         id="path1425"
         inkscape:connector-curvature="0" />
      <path
         style="fill:#9090fe;stroke-width:0.21166667"
         d="m 116.33224,157.99902 c -0.38737,-0.12396 -1.17027,-0.64432 -1.73978,-1.15636 -1.94349,-1.74736 -2.93241,-4.78888 -2.66317,-8.1908 0.21213,-2.68025 0.89375,-4.64774 2.4618,-7.10591 2.3976,-3.75863 2.9245,-5.33821 2.54037,-7.6156 -0.29689,-1.76018 -1.1103,-3.52662 -2.7261,-5.92009 -1.57996,-2.34039 -1.6354,-2.502 -0.9634,-2.80819 0.4367,-0.19897 0.83866,-0.15702 2.16541,0.22601 2.02292,0.58399 3.17368,1.16181 4.84455,2.43252 4.22853,3.21582 6.99011,8.15958 7.68167,13.75163 0.71222,5.75921 -1.57774,12.0423 -5.46018,14.98138 -2.01897,1.5284 -4.19827,2.02713 -6.14117,1.40541 z m -28.325936,-2.1512 c -1.30096,-0.40692 -3.346031,-2.08498 -4.310368,-3.53682 -0.836253,-1.259 -1.939941,-3.72015 -2.217207,-4.94422 -0.589043,-2.6005 -0.483379,-6.67713 0.237862,-9.17693 0.619013,-2.14549 2.474909,-5.52083 4.005015,-7.28398 2.663299,-3.06894 7.139947,-5.5792 7.637468,-4.28269 0.06803,0.17728 -0.416395,1.25941 -1.098,2.45278 -1.810446,3.16975 -2.273522,4.55913 -2.286694,6.86082 -0.01272,2.22335 0.324828,3.1817 2.270927,6.44738 2.416067,4.05432 2.957919,6.92073 1.902875,10.06626 -0.491382,1.46502 -1.376492,2.51331 -2.663635,3.15472 -1.200016,0.598 -2.133943,0.66316 -3.478243,0.24268 z"
         id="path1423"
         inkscape:connector-curvature="0" />
      <path
         style="fill:#fe7070;stroke-width:0.21166667"
         d="m 88.006304,155.84782 c -1.30096,-0.40692 -3.346031,-2.08498 -4.310368,-3.53682 -0.836253,-1.259 -1.939941,-3.72015 -2.217207,-4.94422 -0.589043,-2.6005 -0.483379,-6.67713 0.237862,-9.17693 0.619013,-2.14549 2.474909,-5.52083 4.005015,-7.28398 2.663299,-3.06894 7.139947,-5.5792 7.637468,-4.28269 0.06803,0.17728 -0.416395,1.25941 -1.098,2.45278 -1.810446,3.16975 -2.273522,4.55913 -2.286694,6.86082 -0.01272,2.22335 0.324828,3.1817 2.270927,6.44738 2.416067,4.05432 2.957919,6.92073 1.902875,10.06626 -0.491382,1.46502 -1.376492,2.51331 -2.663635,3.15472 -1.200016,0.598 -2.133943,0.66316 -3.478243,0.24268 z m 28.970586,-0.24268 c -1.28714,-0.64141 -2.17225,-1.6897 -2.66364,-3.15472 -1.05504,-3.14553 -0.51319,-6.01194 1.90288,-10.06626 1.9461,-3.26568 2.28365,-4.22403 2.27093,-6.44738 -0.0132,-2.30169 -0.47625,-3.69107 -2.2867,-6.86082 -0.6816,-1.19337 -1.16602,-2.2755 -1.098,-2.45278 0.49752,-1.29651 4.97417,1.21375 7.63747,4.28269 1.53011,1.76315 3.386,5.13849 4.00502,7.28398 0.72124,2.4998 0.8269,6.57643 0.23786,9.17693 -0.27727,1.22407 -1.38096,3.68522 -2.21721,4.94422 -1.44605,2.17707 -4.05632,3.83995 -6.0277,3.83995 -0.36609,0 -1.15851,-0.24562 -1.76091,-0.54581 z"
         id="path1421"
         inkscape:connector-curvature="0" />
      <path
         style="fill:#7070fe;stroke-width:0.21166667"
         d="m 116.97689,155.60514 c -1.28714,-0.64141 -2.17225,-1.6897 -2.66364,-3.15472 -1.05504,-3.14553 -0.51319,-6.01194 1.90288,-10.06626 1.9461,-3.26568 2.28365,-4.22403 2.27093,-6.44738 -0.0132,-2.30169 -0.47625,-3.69107 -2.2867,-6.86082 -0.6816,-1.19337 -1.16602,-2.2755 -1.098,-2.45278 0.49752,-1.29651 4.97417,1.21375 7.63747,4.28269 1.53011,1.76315 3.386,5.13849 4.00502,7.28398 0.72124,2.4998 0.8269,6.57643 0.23786,9.17693 -0.27727,1.22407 -1.38096,3.68522 -2.21721,4.94422 -1.44605,2.17707 -4.05632,3.83995 -6.0277,3.83995 -0.36609,0 -1.15851,-0.24562 -1.76091,-0.54581 z m -29.926358,-2.15849 c -1.619625,-0.76152 -2.94899,-2.15961 -3.799844,-3.9963 -2.284538,-4.9315 -2.116937,-9.64498 0.525672,-14.78357 1.492096,-2.9014 4.789073,-6.0998 6.484358,-6.29048 0.70801,-0.0796 0.644995,0.42608 -0.329178,2.64175 -0.965113,2.19506 -1.357746,3.89194 -1.358514,5.87123 -8.47e-4,2.15472 0.375956,3.4187 1.985124,6.6592 1.615067,3.25238 1.910336,4.29253 1.771072,6.23893 -0.08136,1.13716 -0.235693,1.64567 -0.719586,2.371 -1.051911,1.57676 -2.859274,2.08746 -4.559104,1.28824 z"
         id="path1419"
         inkscape:connector-curvature="0" />
      <path
         style="fill:#fe5050;stroke-width:0.21166667"
         d="m 87.050532,153.44665 c -1.619625,-0.76152 -2.94899,-2.15961 -3.799844,-3.9963 -2.284538,-4.9315 -2.116937,-9.64498 0.525672,-14.78357 1.492096,-2.9014 4.789073,-6.0998 6.484358,-6.29048 0.70801,-0.0796 0.644995,0.42608 -0.329178,2.64175 -0.965113,2.19506 -1.357746,3.89194 -1.358514,5.87123 -8.47e-4,2.15472 0.375956,3.4187 1.985124,6.6592 1.615067,3.25238 1.910336,4.29253 1.771072,6.23893 -0.08136,1.13716 -0.235693,1.64567 -0.719586,2.371 -1.051911,1.57676 -2.859274,2.08746 -4.559104,1.28824 z m 31.154148,0.005 c -1.18287,-0.59408 -1.94981,-1.95016 -2.07247,-3.66445 -0.13926,-1.9464 0.15601,-2.98655 1.77108,-6.23893 1.60917,-3.24051 1.98596,-4.50448 1.98512,-6.65921 -8.5e-4,-1.97928 -0.3934,-3.67616 -1.35851,-5.87123 -0.97418,-2.21567 -1.03719,-2.72139 -0.32918,-2.64175 1.69528,0.19068 4.99226,3.38908 6.48436,6.29048 2.64261,5.13859 2.81021,9.85207 0.52567,14.78357 -1.55737,3.3618 -4.7028,5.15831 -7.00607,4.00152 z"
         id="path1417"
         inkscape:connector-curvature="0" />
      <path
         style="fill:#5050fe;stroke-width:0.21166667"
         d="m 118.20468,153.45187 c -1.18287,-0.59409 -1.94981,-1.95016 -2.07247,-3.66446 -0.13926,-1.9464 0.15601,-2.98655 1.77108,-6.23893 1.60917,-3.2405 1.98596,-4.50448 1.98512,-6.6592 -8.5e-4,-1.97929 -0.3934,-3.67617 -1.35851,-5.87123 -0.97418,-2.21567 -1.03719,-2.72139 -0.32918,-2.64175 1.69528,0.19068 4.99226,3.38908 6.48436,6.29048 2.64261,5.13859 2.81021,9.85207 0.52567,14.78357 -1.55737,3.3618 -4.7028,5.15831 -7.00607,4.00152 z m -31.120332,-1.94369 c -2.109359,-0.64164 -3.512288,-2.49351 -4.325228,-5.70932 -0.768021,-3.03811 -0.560371,-5.64655 0.731198,-9.18507 1.128667,-3.09222 4.302685,-6.73291 4.952798,-5.68101 0.06181,0.10001 -0.127214,1.0287 -0.420054,2.06375 -0.302223,1.06822 -0.585827,2.75135 -0.655918,3.89275 -0.147148,2.39625 0.06968,3.38775 1.615638,7.3878 0.931677,2.41065 1.066269,2.95418 1.066269,4.30595 0,1.7728 -0.293376,2.36678 -1.396698,2.82777 -0.780283,0.32603 -0.810215,0.32789 -1.568005,0.0974 z"
         id="path1415"
         inkscape:connector-curvature="0" />
      <path
         style="fill:#fe3030;stroke-width:0.21166667"
         d="m 87.084348,151.50818 c -2.109359,-0.64164 -3.512288,-2.49351 -4.325228,-5.70932 -0.768021,-3.03811 -0.560371,-5.64655 0.731198,-9.18507 1.128667,-3.09222 4.302685,-6.73291 4.952798,-5.68101 0.06181,0.10001 -0.127214,1.0287 -0.420054,2.06375 -0.302223,1.06822 -0.585827,2.75135 -0.655918,3.89275 -0.147148,2.39625 0.06968,3.38775 1.615638,7.3878 0.931677,2.41065 1.066269,2.95418 1.066269,4.30595 0,1.7728 -0.293376,2.36678 -1.396698,2.82777 -0.780283,0.32603 -0.810215,0.32789 -1.568005,0.0974 z m 32.875932,-0.0408 c -1.15026,-0.32387 -1.54789,-1.06401 -1.54789,-2.8812 0,-1.39559 0.12334,-1.895 1.05156,-4.2577 1.52929,-3.8927 1.77834,-5.02911 1.63034,-7.43917 -0.0701,-1.1414 -0.35369,-2.82453 -0.65592,-3.89275 -0.29283,-1.03505 -0.48186,-1.96374 -0.42005,-2.06375 0.36319,-0.58766 1.78917,0.51405 3.34605,2.58517 1.70119,2.26307 3.03791,6.95388 2.77026,9.72133 -0.35602,3.68111 -1.86882,6.90666 -3.65992,7.80358 -1.07441,0.53803 -1.72256,0.64745 -2.51443,0.42449 z"
         id="path1413"
         inkscape:connector-curvature="0" />
      <path
         style="fill:#3030fe;stroke-width:0.21166667"
         d="m 119.96028,151.46735 c -1.15026,-0.32387 -1.54789,-1.06401 -1.54789,-2.8812 0,-1.39559 0.12334,-1.895 1.05156,-4.2577 1.52929,-3.8927 1.77834,-5.02911 1.63034,-7.43917 -0.0701,-1.1414 -0.35369,-2.82453 -0.65592,-3.89275 -0.29283,-1.03505 -0.48186,-1.96374 -0.42005,-2.06375 0.36319,-0.58766 1.78917,0.51405 3.34605,2.58517 1.70119,2.26307 3.03791,6.95388 2.77026,9.72133 -0.35602,3.68111 -1.86882,6.90666 -3.65992,7.80358 -1.07441,0.53803 -1.72256,0.64745 -2.51443,0.42449 z m -34.586287,-2.99558 c -0.938433,-0.63241 -1.535594,-1.73428 -1.993354,-3.67809 -0.721961,-3.0657 0.03029,-7.63045 1.579902,-9.58699 1.141362,-1.44109 1.27851,-1.2404 1.27851,1.87087 0,2.81447 0.335721,5.1997 1.071494,7.61277 0.448629,1.47133 0.534911,3.21204 0.191059,3.85453 -0.298788,0.55829 -1.238614,0.526 -2.127611,-0.0731 z"
         id="path1411"
         inkscape:connector-curvature="0" />
      <path
         style="fill:#fe0f0f;stroke-width:0.21166667"
         d="m 85.373993,148.47177 c -0.938433,-0.63241 -1.535594,-1.73428 -1.993354,-3.67809 -0.721961,-3.0657 0.03029,-7.63045 1.579902,-9.58699 1.141362,-1.44109 1.27851,-1.2404 1.27851,1.87087 0,2.81447 0.335721,5.1997 1.071494,7.61277 0.448629,1.47133 0.534911,3.21204 0.191059,3.85453 -0.298788,0.55829 -1.238614,0.526 -2.127611,-0.0731 z m 35.686157,0.0613 c -0.3183,-0.35171 -0.36081,-0.65726 -0.2577,-1.85208 0.0679,-0.78698 0.27009,-1.84135 0.44926,-2.34303 0.58315,-1.63283 0.96931,-4.53496 0.97,-7.28993 8.5e-4,-3.12978 0.16708,-3.3388 1.35454,-1.70251 2.57427,3.54729 2.28723,11.25548 -0.48881,13.12625 -0.88134,0.59393 -1.52758,0.61348 -2.02729,0.0613 z"
         id="path1409"
         inkscape:connector-curvature="0" />
      <path
         style="fill:#0f0ffe;stroke-width:0.21166667"
         d="m 121.06015,148.53307 c -0.3183,-0.35171 -0.36081,-0.65726 -0.2577,-1.85208 0.0679,-0.78698 0.27009,-1.84135 0.44926,-2.34303 0.58315,-1.63283 0.96931,-4.53496 0.97,-7.28993 8.5e-4,-3.12978 0.16708,-3.3388 1.35454,-1.70251 2.57427,3.54729 2.28723,11.25548 -0.48881,13.12625 -0.88134,0.59393 -1.52758,0.61348 -2.02729,0.0613 z"
         id="path1407"
         inkscape:connector-curvature="0" />
    </g>
    <flowRoot
       xml:space="preserve"
       id="flowRoot267"
       style="font-style:normal;font-weight:normal;font-size:40px;line-height:1.25;font-family:sans-serif;letter-spacing:0px;word-spacing:0px;opacity:0.8;fill:#333333;fill-opacity:1;stroke:none"
       transform="matrix(0.26458333,0,0,0.26458333,1.2317381,-15.609632)"><flowRegion
         id="flowRegion269"
         style="fill:#333333"><rect
           id="rect271"
           width="255.06352"
           height="50.507626"
           x="282.84271"
           y="613.9079"
           style="fill:#333333" /></flowRegion><flowPara
         id="flowPara273"
         style="font-style:normal;font-variant:normal;font-weight:600;font-stretch:normal;font-family:'Fira Sans';-inkscape-font-specification:'Fira Sans Semi-Bold';fill:#333333">MAESTRO<flowSpan
   style="font-style:italic;font-variant:normal;font-weight:300;font-stretch:normal;font-family:'Fira Sans';-inkscape-font-specification:'Fira Sans Light Italic'"
   id="flowSpan1265">eX</flowSpan></flowPara></flowRoot>  </g>
</svg>
